<?xml version="1.0" standalone="no"?>
<!DOCTYPE svg PUBLIC "-//W3C//DTD SVG 20010904//EN"
 "http://www.w3.org/TR/2001/REC-SVG-20010904/DTD/svg10.dtd">
<svg version="1.0" xmlns="http://www.w3.org/2000/svg"
 width="259.000000pt" height="94.000000pt" viewBox="0 0 259.000000 94.000000"
 preserveAspectRatio="xMidYMid meet">

<g transform="translate(0.000000,94.000000) scale(0.100000,-0.100000)"
fill="#000000" stroke="none">
<path d="M753 921 c-66 -17 -85 -41 -33 -41 l30 0 -2 -262 -3 -263 -39 -3
c-21 -2 -43 1 -49 7 -10 10 -57 -14 -57 -30 0 -5 65 -9 145 -9 103 0 145 3
145 12 0 6 8 4 19 -6 31 -29 94 -32 133 -8 19 12 43 30 53 42 26 29 35 25 35
-18 0 -21 3 -41 6 -44 3 -4 21 11 40 32 l35 38 -7 153 -7 153 -32 35 c-28 30
-39 35 -91 39 -51 3 -67 0 -114 -26 -50 -27 -55 -33 -55 -63 0 -46 30 -53 40
-9 8 36 30 50 80 50 61 0 92 -27 101 -89 4 -25 2 -27 -87 -48 -95 -23 -132
-45 -151 -93 -16 -39 -19 -80 -8 -101 9 -17 7 -19 -19 -19 l-29 0 -8 78 c-4
42 -4 175 0 295 3 119 3 216 -1 215 -5 0 -36 -8 -70 -17z m377 -429 c0 -36 -6
-66 -16 -80 -20 -29 -66 -52 -103 -52 -58 0 -78 92 -30 135 18 17 111 54 137
55 8 0 12 -18 12 -58z"/>
<path d="M573 843 c-17 -11 -23 -25 -23 -54 0 -37 -2 -39 -30 -39 -20 0 -30
-5 -30 -15 0 -10 10 -15 30 -15 l30 0 0 -180 0 -180 35 17 35 17 0 163 0 163
55 0 c42 0 55 3 55 15 0 12 -13 15 -55 15 l-55 0 0 55 c0 59 -8 66 -47 38z"/>
<path d="M1748 842 c-23 -14 -28 -24 -28 -54 0 -35 -2 -38 -30 -38 -20 0 -30
-5 -30 -15 0 -11 11 -15 37 -15 l36 0 -6 -157 c-7 -189 -4 -209 34 -228 39
-21 319 -21 319 0 0 7 -10 17 -22 21 -13 4 -26 12 -31 18 -4 6 -7 99 -7 206 1
107 1 198 1 202 -1 3 -24 -2 -51 -13 -31 -12 -76 -19 -116 -19 l-65 0 6 55 c8
61 2 66 -47 37z m200 -297 c3 -190 1 -195 -66 -195 -79 0 -92 32 -92 227 l0
144 78 -3 77 -3 3 -170z"/>
<path d="M2239 756 c-57 -20 -107 -55 -137 -94 -23 -30 -28 -47 -31 -113 -4
-96 19 -152 79 -194 69 -48 221 -44 266 6 24 27 15 30 -47 17 -73 -15 -122 -4
-162 36 -37 37 -57 92 -57 161 0 114 81 172 189 134 34 -12 51 -35 51 -68 0
-12 7 -21 15 -21 10 0 15 10 15 28 0 15 3 44 6 64 6 35 5 37 -32 47 -51 14
-110 13 -155 -3z"/>
<path d="M242 719 c-48 -27 -53 -33 -50 -61 4 -42 22 -46 38 -8 34 81 154 62
180 -28 10 -38 17 -33 -93 -61 -94 -23 -124 -42 -143 -86 -39 -95 7 -175 100
-175 25 0 48 11 85 40 28 22 53 40 56 40 3 0 5 -18 5 -40 l0 -40 35 39 35 38
0 132 c0 92 -4 142 -14 166 -33 79 -139 99 -234 44z m178 -228 c0 -56 -2 -60
-40 -95 -67 -61 -140 -43 -140 34 0 50 24 76 90 99 88 31 90 30 90 -38z"/>
<path d="M1300 735 c-19 -7 -45 -14 -57 -14 -35 -1 -29 -31 6 -31 17 0 31 -6
35 -16 3 -9 6 -81 6 -160 0 -79 3 -144 8 -144 4 0 20 8 35 18 27 19 28 20 30
136 2 115 3 118 30 142 39 33 99 33 132 -1 28 -27 28 -28 25 -232 l-1 -123 75
0 c62 0 74 3 70 14 -3 8 -18 16 -32 18 l-27 3 -5 160 c-3 100 -10 168 -17 182
-24 42 -63 63 -114 63 -42 0 -55 -5 -88 -35 -21 -19 -41 -35 -45 -35 -3 0 -6
16 -6 35 0 39 -6 41 -60 20z"/>
<path d="M1316 339 l-39 -29 77 0 c61 0 76 3 76 15 0 9 -9 15 -22 15 -12 0
-29 6 -37 14 -14 12 -21 10 -55 -15z"/>
<path d="M458 283 c6 -2 18 -2 25 0 6 3 1 5 -13 5 -14 0 -19 -2 -12 -5z"/>
<path d="M75 201 c-40 -17 -60 -51 -60 -102 0 -60 24 -88 84 -96 37 -5 41 -4
41 16 0 15 -6 21 -24 21 -32 0 -50 25 -49 66 1 42 18 64 49 64 17 0 24 6 24
20 0 22 -27 26 -65 11z"/>
<path d="M179 181 c-23 -23 -29 -38 -29 -71 0 -83 47 -126 110 -100 63 26 66
160 4 189 -38 17 -53 14 -85 -18z m72 -38 c12 -31 4 -89 -13 -99 -28 -18 -50
65 -28 107 15 27 29 24 41 -8z"/>
<path d="M334 197 c-3 -8 -4 -54 -2 -103 3 -84 4 -89 26 -92 21 -3 22 0 23 55
l0 58 27 -55 c20 -39 34 -56 50 -58 23 -3 23 -3 20 100 -3 89 -5 103 -20 106
-16 3 -18 -5 -19 -60 l0 -63 -25 55 c-14 30 -30 58 -37 62 -18 12 -37 9 -43
-5z"/>
<path d="M557 194 c-32 -17 -47 -50 -47 -100 0 -50 47 -97 92 -92 41 4 54 38
14 38 -28 0 -56 33 -56 65 0 32 28 65 56 65 19 0 25 5 22 18 -4 22 -45 26 -81
6z"/>
<path d="M668 204 c-5 -4 -8 -52 -8 -106 0 -98 0 -98 25 -98 23 0 25 4 25 40
0 52 23 54 36 3 7 -32 14 -39 37 -41 26 -3 28 -1 22 20 -4 13 -13 35 -20 50
-11 23 -11 29 1 39 18 15 18 63 0 78 -17 14 -108 26 -118 15z m77 -59 c0 -11
-8 -21 -17 -23 -14 -3 -18 3 -18 23 0 20 4 26 18 23 9 -2 17 -12 17 -23z"/>
<path d="M837 204 c-4 -4 -7 -52 -7 -106 l0 -98 55 0 c48 0 55 2 55 20 0 16
-7 20 -30 20 -25 0 -30 4 -30 25 0 21 5 25 31 25 24 0 30 4 27 18 -2 10 -13
17 -28 17 -18 0 -26 6 -28 23 -3 19 1 22 28 22 25 0 31 4 28 18 -2 13 -15 18
-48 20 -25 2 -49 0 -53 -4z"/>
<path d="M957 204 c-15 -16 -6 -34 18 -34 25 0 25 -1 25 -85 0 -84 0 -85 25
-85 25 0 25 1 25 85 0 79 1 85 21 85 14 0 19 5 17 18 -3 13 -15 18 -64 20 -33
2 -63 0 -67 -4z"/>
<path d="M1114 197 c-2 -7 -4 -54 -2 -103 l3 -89 58 -3 c52 -3 57 -1 57 18 0
16 -6 20 -35 20 -31 0 -35 3 -35 25 0 21 5 25 31 25 24 0 30 4 27 18 -2 10
-13 17 -28 17 -18 0 -26 6 -28 23 -3 19 1 22 28 22 25 0 31 4 28 18 -4 22 -95
31 -104 9z"/>
<path d="M1313 194 c-2 -6 -3 -51 -1 -100 3 -84 4 -89 26 -92 20 -3 22 1 22
37 0 37 2 41 25 41 34 0 65 33 65 71 0 25 -6 32 -35 45 -39 16 -95 15 -102 -2z
m83 -39 c6 -16 -12 -45 -27 -45 -5 0 -9 14 -9 30 0 32 26 43 36 15z"/>
<path d="M1482 202 c-9 -6 -12 -34 -10 -103 3 -93 3 -94 28 -94 22 0 25 5 28
37 4 44 19 50 28 10 10 -48 13 -52 39 -52 23 0 25 3 19 28 -4 15 -11 37 -15
50 -6 16 -4 30 7 47 12 19 13 28 4 45 -18 34 -94 53 -128 32z m76 -54 c-5 -32
-28 -35 -28 -4 0 17 5 26 16 26 10 0 14 -7 12 -22z"/>
<path d="M1667 190 c-53 -42 -45 -156 13 -180 68 -28 116 22 107 114 -7 79
-64 110 -120 66z m67 -42 c15 -59 -8 -127 -35 -101 -13 13 -17 92 -5 111 12
19 33 14 40 -10z"/>
<path d="M1828 204 c-5 -4 -8 -52 -8 -106 l0 -98 30 0 c17 0 46 6 65 14 27 12
36 23 45 56 12 44 1 98 -24 119 -17 14 -99 25 -108 15z m76 -50 c3 -9 6 -31 6
-49 0 -43 -9 -65 -26 -65 -11 0 -14 16 -14 65 0 49 3 65 14 65 8 0 17 -7 20
-16z"/>
<path d="M1997 203 c-4 -3 -7 -40 -7 -80 0 -65 3 -77 25 -98 29 -30 64 -32 96
-6 21 17 23 27 24 102 0 77 -2 84 -20 84 -18 0 -21 -8 -25 -77 -6 -83 -11 -94
-35 -85 -12 5 -15 24 -15 87 0 71 -2 80 -18 80 -10 0 -22 -3 -25 -7z"/>
<path d="M2214 196 c-38 -17 -59 -63 -51 -113 8 -48 35 -73 86 -80 37 -5 41
-4 41 16 0 15 -6 21 -24 21 -31 0 -50 24 -50 65 0 41 19 65 50 65 17 0 24 6
24 20 0 24 -29 26 -76 6z"/>
<path d="M2317 203 c-14 -13 -6 -33 13 -33 18 0 20 -7 20 -85 0 -84 0 -85 25
-85 25 0 25 1 25 85 0 78 2 85 20 85 13 0 20 7 20 20 0 18 -7 20 -58 20 -32 0
-62 -3 -65 -7z"/>
<path d="M2490 197 c-17 -8 -26 -22 -28 -44 -3 -26 3 -36 33 -59 42 -32 41
-47 -5 -54 -41 -6 -50 -27 -16 -36 53 -13 106 17 106 61 0 15 -14 34 -40 55
-44 35 -44 50 1 50 24 0 30 4 27 18 -4 21 -45 27 -78 9z"/>
</g>
</svg>
